<svg width="941" height="375" viewBox="0 0 941 375" fill="none" xmlns="http://www.w3.org/2000/svg">
<path d="M243.8 1.7C246 1.3 249.6 0.75 251.8 0.5C254 0.25 257.8 0.05 260.3 0C262.8 0 267.4 0.2 270.55 0.45C273.7 0.75 278.55 1.45 281.3 2C284.05 2.55 288 3.55 290.05 4.25C292.1 4.95 295.7 6.45 298.05 7.6C300.4 8.75 303.6 10.65 305.2 11.8C306.75 13 309.45 15.35 311.1 17.1C312.8 18.8 315.1 21.55 316.2 23.2C317.35 24.85 318.85 27.55 319.6 29.2C320.35 30.85 321.45 33.8 322.05 35.7C322.6 37.6 323.45 41.55 323.8 44.45C324.2 47.35 324.55 50.55 324.55 53.45H295.3L294.7 50.1C294.35 48.2 293.4 45.35 292.6 43.7C291.7 41.8 290.1 39.75 288.2 38C286.6 36.55 283.75 34.6 281.8 33.7C279.85 32.75 276.95 31.7 275.3 31.25C273.65 30.85 270.05 30.25 267.3 29.9C263.65 29.5 260.65 29.5 256.3 29.9C253 30.2 248.85 30.85 247.05 31.4C245.25 31.9 242.55 32.9 241.05 33.55C239.55 34.25 237.1 35.9 235.6 37.25C234.15 38.6 232.45 40.6 231.9 41.7C231.4 42.8 230.75 44.85 230.55 46.2C230.35 47.6 230.35 50 230.6 51.6C230.85 53.15 231.6 55.5 232.25 56.85C232.9 58.15 234.65 60.35 236.1 61.7C237.6 63.1 240.05 64.95 241.55 65.8C243.05 66.65 246.55 68.2 249.3 69.2C252.05 70.2 261.15 72.8 269.55 74.95C277.95 77.1 287.45 79.8 290.65 80.9C293.9 82.05 298.65 84 301.2 85.25C303.7 86.55 307.05 88.4 308.55 89.4C310.05 90.4 312.6 92.45 314.25 93.95C315.85 95.45 318.15 98.05 319.35 99.7C320.5 101.35 322.15 104.2 323 106.1C323.85 107.95 325 111.3 325.55 113.6C326.15 115.85 326.75 120.35 326.9 123.7C327.1 127.5 326.95 131.25 326.55 133.95C326.2 136.3 325.35 140 324.6 142.2C323.9 144.4 322.35 147.75 321.2 149.7C320.05 151.65 317.95 154.5 316.45 156.15C315 157.75 312 160.3 309.8 161.75C307.6 163.2 303.9 165.25 301.55 166.25C299.2 167.25 294.8 168.7 291.8 169.5C288.8 170.25 284.3 171.15 281.8 171.55C279.1 171.95 272.95 172.2 266.3 172.2C257.05 172.15 254.35 172 249.3 171.05C246 170.4 240.95 169.1 238.05 168.15C235.15 167.2 231 165.55 228.8 164.45C226.6 163.4 223.35 161.55 221.55 160.35C219.75 159.2 216.6 156.6 214.55 154.65C212.5 152.7 209.65 149.4 208.25 147.4C206.85 145.35 205.2 142.6 204.55 141.2C203.95 139.85 203 137.45 202.5 135.95C201.95 134.45 201.2 131.15 200.8 128.7C200.4 126.25 200.05 123.35 200.05 120.45L229.8 120.7L230.15 123.35C230.4 124.75 231.1 127 231.75 128.35C232.4 129.65 234.3 132 236 133.6C237.8 135.3 240.5 137.15 242.7 138.2C244.65 139.15 248.55 140.5 251.3 141.25C255.8 142.45 257.2 142.6 265.55 142.65C272.7 142.7 275.75 142.5 279.05 141.8C281.4 141.3 284.55 140.45 286.05 139.9C287.55 139.35 289.6 138.4 290.55 137.85C291.5 137.25 293.05 136.1 293.95 135.25C294.9 134.4 296.05 132.85 296.6 131.85C297.1 130.8 297.7 128.65 297.85 127.1C298.1 124.8 297.9 123.55 297.05 121.2C296.2 118.95 295.15 117.45 293 115.35C291.3 113.7 288.6 111.7 286.7 110.75C284.8 109.85 281.4 108.4 279.05 107.55C276.7 106.75 267.95 104.35 259.55 102.2C251.15 100.1 241.6 97.45 238.3 96.35C235 95.3 229.6 93.05 226.3 91.45C222.65 89.65 218.65 87.2 216.2 85.2C213.9 83.4 210.95 80.55 209.6 78.85C208.25 77.1 206.3 74 205.25 71.95C204.25 69.9 202.95 66.5 202.4 64.45C201.5 61.3 201.35 59.3 201.35 51.7C201.35 43.65 201.5 42.2 202.65 37.95C203.35 35.35 204.8 31.3 205.9 28.95C206.95 26.6 208.75 23.45 209.85 21.95C210.95 20.45 213.1 18 214.6 16.5C216.1 15 218.65 12.75 220.3 11.55C221.95 10.35 225.05 8.45 227.2 7.4C229.3 6.35 233 4.8 235.4 4C237.85 3.2 241.6 2.15 243.8 1.7Z" fill="black"/>
<path d="M6.05 32.95V18.2V3.45H111.55L111.25 23.2L98.15 47.35C90.95 60.6 85.05 71.5 85.05 71.6C85.0015 71.6485 86.7896 72.4035 88.9518 73.3163L89.15 73.4C91.45 74.35 94.45 75.8 95.8 76.6C97.2 77.4 99.6 79.1 101.2 80.4C102.8 81.65 105.55 84.5 107.35 86.7C109.1 88.9 111.45 92.5 112.55 94.7C113.6 96.9 115.1 100.75 115.9 103.2C117.15 107.4 117.25 108.3 117.25 117.2C117.3 125.75 117.15 127.15 116.1 130.95C115.45 133.3 114.1 137.1 113.1 139.45C112.1 141.8 110 145.6 108.45 147.95C106.9 150.3 104 153.85 101.95 155.85C99.95 157.85 96.85 160.5 95.05 161.75C93.25 163.05 89.75 165.05 87.3 166.25C84.85 167.45 80.9 169 78.55 169.7C76.2 170.4 71.85 171.35 68.8 171.75C64.65 172.4 61.4 172.5 55.55 172.3C50.05 172.05 46.3 171.65 42.55 170.75C39.65 170.1 35.5 168.85 33.3 168C31.1 167.15 27.85 165.6 26.1 164.6C24.35 163.55 21.45 161.45 19.65 159.95C17.85 158.45 15.15 155.75 13.7 153.95C12.3 152.15 10.1 148.8 8.85 146.45C7.65 144.1 6.05 140.35 5.35 138.1C4.65 135.8 3.75 132.1 3.35 129.85C2.95 127.55 2.45 123.5 1.8 115.95H30.55L30.85 119.1C31 120.8 31.65 123.75 32.25 125.7C32.85 127.65 34.05 130.35 34.9 131.7C35.75 133.1 37.65 135.35 39.15 136.75C40.6 138.15 43.2 140 44.95 140.85C46.65 141.75 49.55 142.8 51.45 143.25C53.9 143.85 56.25 144 60.3 143.8C63.6 143.65 66.8 143.2 68.3 142.65C69.7 142.2 71.95 141.1 73.3 140.2C74.7 139.35 77 137.3 78.45 135.65C79.95 134.05 81.8 131.35 82.6 129.7C83.4 128.05 84.4 125.35 84.8 123.7C85.2 122.05 85.5 118.65 85.5 116.2C85.55 113.75 85.2 110.3 84.8 108.6C84.4 106.85 83.25 103.8 82.2 101.85C81.2 99.85 79.25 97 77.85 95.5C76.45 94 74.05 92 72.55 91C71.05 90 68.2 88.65 66.3 88.05C64.4 87.45 61.1 86.75 55.3 86.2L55.05 71.2L65.55 52.35C71.35 41.95 76.05 33.35 76.05 33.2C76.05 33.05 60.3 32.95 6.05 32.95Z" fill="black"/>
<path d="M338.45 18.55C338.4 10.6 338.55 3.95 338.8 3.8C339.05 3.6 367.65 3.45 465.55 3.45V32.95L417.8 33.2L417.55 168.95H386.55V32.95H338.55L338.45 18.55Z" fill="black"/>
<path d="M483.05 168.95V86.2V3.45H603.05V32.95H514.05L514 93.2L518.15 88.75C520.45 86.3 524.15 82.95 526.4 81.25C528.6 79.55 532.2 77.25 534.4 76.1C536.55 74.95 540.65 73.2 543.55 72.25C546.45 71.25 551.05 70.15 553.8 69.7C557.65 69.15 562.45 69 590.3 69.2V97.2L573.05 97.5C557.9 97.75 555.15 97.9 550.7 98.85C547.85 99.45 543.7 100.65 541.45 101.45C539.15 102.3 535.85 103.8 534.05 104.75C532.25 105.75 529.45 107.65 527.8 109C526.15 110.3 523.9 112.5 522.8 113.8C521.7 115.1 520.05 117.45 519.15 118.95C518.25 120.45 517 123.4 516.3 125.45C515.65 127.5 514.85 130.55 514.55 132.2C514.3 133.85 514.05 136.15 514.05 139.45H605.55V168.95H483.05Z" fill="black"/>
<path d="M629.55 168.95V86.2V3.45H663.4C682.05 3.45 699.9 3.7 703.05 3.95C706.2 4.25 710.05 4.7 711.55 5C713.05 5.3 716.1 6.1 718.3 6.8C720.5 7.5 723.9 8.85 725.8 9.8C727.7 10.8 730.45 12.45 731.8 13.45C733.2 14.45 735.4 16.4 736.75 17.75C738.05 19.1 740.1 21.55 741.2 23.2C742.3 24.85 743.95 27.75 744.85 29.7C745.75 31.6 747.05 35.45 747.8 38.2C748.5 40.95 749.35 45.45 749.65 48.2C749.95 50.95 750.05 56.25 749.9 59.95C749.7 64.75 749.3 68.05 748.4 71.45C747.75 74.05 746.15 78.2 744.9 80.7C743.6 83.15 741.4 86.65 739.9 88.45C738.45 90.25 735.45 93.15 733.25 94.9C731.1 96.65 727.3 99.25 724.8 100.75C722.3 102.2 718.05 104.4 715.3 105.6C712.55 106.85 705.7 109.7 700.05 111.95C694.4 114.2 687.3 117.3 684.3 118.85C681.3 120.35 677.55 122.45 676.05 123.45C674.55 124.5 672.2 126.3 670.85 127.5C669.5 128.7 667.45 131.05 666.3 132.7C665.15 134.35 663.7 136.95 663.1 138.45C662.45 139.95 661.6 142.85 661.25 144.8C660.8 147.2 660.55 152.05 660.55 168.95H629.55Z" fill="black"/>
<path d="M61.05 203.85C63.65 203.35 67.4 202.7 69.3 202.5C71.2 202.25 75.65 202.05 79.2 202C82.7 202 87.75 202.2 90.45 202.5C93.1 202.75 97.9 203.6 101.05 204.25C104.2 204.95 108.95 206.35 111.55 207.3C114.15 208.3 117.65 209.75 119.3 210.55C120.95 211.4 124.2 213.3 126.55 214.8C129.05 216.45 132.85 219.65 135.85 222.65C138.6 225.4 141.95 229.4 143.3 231.45C144.65 233.5 146.45 236.9 147.35 238.95C148.25 241 149.45 244.5 150 246.7C150.55 248.9 151.25 252.6 151.55 254.95C151.8 257.3 152.05 259.8 152.05 261.95H115.55V259.8C115.55 258.65 115.2 256.35 114.75 254.7C114.35 253.05 113.25 250.35 112.4 248.75C111.5 247.05 109.35 244.45 107.45 242.65C105.15 240.5 102.7 238.8 99.95 237.45C97.65 236.35 94 234.95 91.8 234.35C88.4 233.45 86.4 233.3 78.3 233.25C70.75 233.25 68.15 233.4 65.55 234.1C63.75 234.6 61.3 235.35 60.05 235.8C58.8 236.25 56.25 237.55 54.3 238.65C52.4 239.75 49.5 241.75 47.95 243.05C46.35 244.35 43.85 247.1 42.35 249.05C40.85 251.05 38.95 254.1 38.1 255.8C37.25 257.55 36 260.35 35.35 262.05C34.7 263.8 33.7 267.35 33.15 269.95C32.55 272.55 31.85 277.65 31.6 281.2C31.25 285.5 31.25 290.1 31.55 294.7C31.85 298.55 32.4 303.5 32.85 305.7C33.3 307.9 34.2 311.4 34.9 313.45C35.55 315.5 36.75 318.55 37.55 320.2C38.35 321.85 39.9 324.55 41 326.2C42.15 327.85 44.25 330.4 45.7 331.9C47.1 333.4 49.55 335.5 51.05 336.6C52.55 337.75 55.6 339.5 57.8 340.5C60 341.5 63.85 342.9 66.3 343.5C70.35 344.6 71.85 344.7 80.8 344.65C89.9 344.65 91.25 344.5 95.55 343.35C98.15 342.65 102 341.3 104.05 340.3C106.1 339.35 109.15 337.5 110.8 336.2C112.45 334.95 114.7 332.85 115.75 331.55C116.8 330.25 118.35 327.85 119.1 326.2C120.4 323.55 120.55 322.65 120.55 313.45H76.05V284.95L151.8 285.2L152.05 324.45L150.5 329.05C149.7 331.6 148.05 335.45 146.9 337.6C145.75 339.8 143.4 343.4 141.75 345.6C140.05 347.85 136.7 351.6 134.25 353.95C131.8 356.3 127.9 359.5 125.55 361.05C123.2 362.6 119.25 364.9 116.8 366.15C114.35 367.4 110.25 369.05 107.8 369.9C105.35 370.75 101.15 371.85 98.55 372.4C95.95 372.95 90.9 373.65 87.3 373.9C83.1 374.2 78.55 374.2 74.55 373.9C71.1 373.65 65.7 372.85 62.55 372.15C59.4 371.4 54.9 370.15 52.55 369.35C50.2 368.5 46.25 366.8 43.8 365.6C41.35 364.35 37.7 362.3 35.8 361.05C33.9 359.85 30.7 357.5 28.8 355.95C26.9 354.4 23.7 351.4 21.8 349.35C19.9 347.3 16.95 343.7 15.3 341.4C13.65 339.1 11.05 334.75 9.5 331.7C8 328.7 5.9 323.6 4.85 320.45C3.8 317.3 2.55 312.7 2 310.2C1.5 307.7 0.85 303.7 0.55 301.2C0.25 298.7 0 292.9 0 288.2C0 283.5 0.25 277.7 0.55 275.2C0.85 272.7 1.55 268.45 2.15 265.7C2.7 262.95 3.95 258.35 4.85 255.45C5.8 252.55 7.7 247.85 9.1 244.95C10.5 242.05 13.1 237.45 14.95 234.7C17.05 231.55 20.4 227.55 24.05 223.9C27.85 220.05 31.45 217 34.8 214.8C37.55 213 41.7 210.6 44.05 209.55C46.4 208.45 50.1 206.95 52.3 206.2C54.5 205.45 58.45 204.4 61.05 203.85Z" fill="black"/>
<path d="M371.05 204.35C373.4 203.8 377.45 203.05 380.05 202.7C382.65 202.35 387.65 202.05 391.2 202C394.7 201.95 400.2 202.3 403.45 202.7C406.65 203.15 411.8 204.15 414.8 204.95C417.8 205.75 422.2 207.15 424.55 208.1C426.9 209.05 429.8 210.3 431.05 210.95C432.3 211.55 435.2 213.2 437.55 214.6C439.9 216 443.6 218.6 445.8 220.35C448 222.1 451.05 224.85 452.55 226.4C454.05 227.95 456.55 230.7 458.1 232.45C459.65 234.25 461.9 237.15 463.15 238.95C464.35 240.75 466.4 244.1 467.65 246.45C468.95 248.8 470.8 252.7 471.8 255.2C472.8 257.7 474.25 262.2 475.05 265.2C475.85 268.2 476.75 272.4 477.15 274.45C477.5 276.7 477.8 282.15 477.8 287.95C477.8 293.85 477.5 299.2 477.1 301.45C476.75 303.5 475.9 307.45 475.2 310.2C474.5 312.95 473.15 317.2 472.2 319.7C471.2 322.2 469.75 325.55 468.9 327.2C468.1 328.85 466.5 331.65 465.4 333.45C464.3 335.25 462.15 338.4 460.6 340.45C459.05 342.5 456 346.05 453.8 348.4C451.6 350.7 447.8 354.15 445.3 356.1C442.8 358 438.9 360.7 436.55 362.1C434.2 363.5 430.1 365.65 427.45 366.8C424.75 368 420.25 369.65 417.45 370.45C414.6 371.3 410.5 372.3 408.3 372.7C406.1 373.15 401.5 373.65 398.05 373.9C394.35 374.15 389.15 374.15 385.3 373.9C381.75 373.65 376.55 372.95 373.8 372.4C371.05 371.85 366.45 370.6 363.55 369.6C360.65 368.65 355.95 366.7 353.05 365.25C350.15 363.8 345.9 361.35 343.55 359.8C341.2 358.25 337.4 355.35 335.1 353.35C332.75 351.35 329.15 347.8 327.1 345.45C325 343.1 321.9 339.05 320.15 336.45C318.4 333.85 315.9 329.45 314.55 326.7C313.2 323.95 311.35 319.45 310.4 316.7C309.45 313.95 308.2 309.55 307.65 306.95C307.05 304.35 306.35 299.7 306 296.7C305.65 293.4 305.55 288.5 305.7 284.45C305.9 280.75 306.5 275.15 307.05 272.05C307.6 269 308.9 263.8 310 260.55C311.05 257.35 312.9 252.55 314.15 249.95C315.4 247.35 318.05 242.85 319.95 239.95C321.9 237.05 325.05 233 326.9 230.9C328.75 228.85 332.1 225.5 334.3 223.5C336.5 221.5 340.65 218.3 343.55 216.35C346.45 214.45 350.8 211.9 353.3 210.7C355.8 209.5 359.8 207.85 362.3 206.95C364.8 206.1 368.7 204.9 371.05 204.35Z" fill="black"/>
<path d="M178.05 370.45V287.95V205.45H209.05V340.95L300.3 341.2L300.55 370.45H178.05Z" fill="black"/>
<path d="M500.55 351.45L500.6 278.4V205.4L537.45 205.6C569.35 205.75 574.85 205.9 578.55 206.65C580.9 207.1 584.5 207.95 586.55 208.55C588.6 209.1 592.1 210.4 594.3 211.45C596.5 212.45 599.65 214.15 601.3 215.3C602.95 216.4 605.5 218.55 606.9 220C608.35 221.5 610.1 223.5 610.85 224.45C611.55 225.4 612.8 227.5 613.6 229.05C614.4 230.65 615.6 233.6 616.25 235.55C616.9 237.55 617.7 241.55 618.05 244.45C618.35 247.35 618.5 251.25 618.3 253.2C618.1 255.15 617.75 257.7 617.5 258.95C617.25 260.2 616.4 262.75 615.7 264.7C614.95 266.65 613.3 269.75 612 271.7C610.75 273.65 608.15 276.65 606.25 278.5C604.35 280.3 601.95 282.25 600.9 282.85C599.9 283.45 599.05 284.1 599.05 284.3C599.05 284.55 599.9 285 600.9 285.3C601.95 285.65 604.5 286.9 606.55 288.1C608.6 289.3 611.75 291.65 613.5 293.25C615.25 294.85 617.65 297.55 618.8 299.2C620 300.85 621.5 303.4 622.25 304.8C622.95 306.25 624.15 309.4 624.9 311.8C626.15 315.9 626.25 316.85 626.25 324.95C626.25 333 626.1 334.05 624.9 338.05C624.15 340.5 622.85 343.85 622 345.55C621.15 347.3 619.5 350.05 618.3 351.7C617.15 353.35 614.65 356.15 612.75 357.95C610.85 359.75 608.05 362 606.55 363C605.05 364 602.15 365.65 600.15 366.65C598.2 367.65 594.6 369.1 592.15 369.9C589.75 370.75 585.55 371.85 582.8 372.4C580.05 372.95 574.65 373.65 570.8 373.9C566.4 374.2 561.2 374.2 556.8 373.9C552.95 373.65 547.8 373.1 545.3 372.65C542.8 372.2 538.8 371.35 536.3 370.7C533.8 370.05 530 368.85 527.8 368.05C525.6 367.25 521.55 365.45 518.8 364.05C516.05 362.7 512.2 360.5 510.3 359.2C508.4 357.9 505.4 355.6 500.55 351.45Z" fill="black"/>
<path d="M692.4 233.9C698.05 220.05 703 207.95 703.35 207.05L704.05 205.4L733.85 205.45L738.15 216.05C740.5 221.9 755.55 258.9 771.5 298.3C787.5 337.7 800.6 370.05 800.6 370.15C800.6 370.3 793.1 370.35 767.4 370.15L756.85 344.3L737.1 344.55C726.2 344.7 715.2 345.1 712.6 345.4C709.95 345.7 705.7 346.4 703.1 346.95C700.45 347.45 696.3 348.55 693.85 349.4C691.35 350.25 687.65 351.9 685.6 353.05C683.25 354.35 680.4 356.6 678.1 358.95C675.5 361.55 673.7 363.95 670.35 370.4H653.7C640.65 370.4 637.1 370.3 637.3 369.8C637.389 369.489 645.404 349.699 655.776 324.085L659.8 314.15C672.1 283.9 686.75 247.8 692.4 233.9Z" fill="black"/>
<path d="M818.05 370.45V287.95V205.45H849.05V340.95H940.05V370.45H818.05Z" fill="black"/>
<path d="M660.952 102.2C660.702 102.05 660.552 86.3996 660.602 67.3996L660.652 32.8496L680.702 33.0996C696.602 33.2496 701.302 33.4496 703.302 34.0496C704.702 34.4496 706.702 35.2496 707.802 35.7996C708.902 36.3496 710.552 37.4496 711.502 38.2496C712.402 39.0496 713.802 40.8496 714.552 42.1996C715.302 43.5996 716.302 45.9496 716.702 47.4496C717.102 48.9496 717.602 52.0996 717.752 54.4496C717.952 56.7996 717.852 60.0496 717.552 61.6996C717.302 63.3496 716.402 66.0496 715.602 67.6996C714.802 69.3496 713.052 71.7996 711.702 73.1496C710.402 74.4496 708.052 76.3996 706.552 77.4496C705.052 78.4496 702.002 80.1996 699.802 81.2996C697.602 82.3996 691.852 85.0496 687.052 87.1996C682.252 89.3496 676.302 92.1996 673.802 93.5996C671.352 94.9496 667.952 97.0496 666.302 98.1996C664.652 99.3996 662.852 100.8 662.302 101.4C661.752 101.95 661.152 102.3 660.952 102.2Z" fill="white"/>
<path d="M372.302 236C375.052 235.1 379.102 234 381.302 233.7C383.502 233.35 387.952 233.05 391.152 233C394.402 233 398.802 233.2 400.902 233.5C403.052 233.75 406.702 234.6 409.052 235.25C411.402 235.95 415.102 237.4 417.302 238.45C419.502 239.55 422.752 241.5 424.552 242.9C426.352 244.25 429.302 246.95 431.152 248.9C433.052 250.85 435.352 253.75 436.402 255.35C437.402 256.9 439.202 260.25 440.352 262.7C441.552 265.2 443.102 269.45 443.802 272.2C444.502 274.95 445.302 279.7 445.602 282.7C445.952 286.65 445.952 289.75 445.552 293.7C445.252 296.75 444.552 301 444.002 303.2C443.402 305.4 442.302 308.9 441.452 310.95C440.652 313 438.902 316.5 437.652 318.65C436.352 320.85 433.502 324.5 431.302 326.85C429.102 329.2 425.952 332.1 424.302 333.3C422.652 334.55 419.252 336.55 416.802 337.75C414.302 338.95 410.152 340.5 407.552 341.2C404.952 341.85 400.302 342.65 397.302 342.9C393.802 343.2 389.802 343.2 386.302 342.9C383.252 342.65 378.652 341.85 376.052 341.15C373.452 340.45 369.702 339.15 367.802 338.25C365.852 337.35 363.002 335.8 361.402 334.8C359.852 333.8 356.902 331.4 354.902 329.5C352.952 327.65 350.352 324.9 349.202 323.4C348.052 321.9 346.302 319.25 345.302 317.45C344.252 315.65 342.752 312.5 341.952 310.45C341.152 308.4 340.052 304.9 339.502 302.7C339.002 300.5 338.302 296.3 338.052 293.35C337.702 289.8 337.702 286.15 338.052 282.6C338.302 279.65 339.102 274.95 339.802 272.2C340.502 269.45 342.052 265.2 343.202 262.7C344.402 260.25 346.552 256.45 348.052 254.25C349.552 252.1 352.602 248.6 354.852 246.5C357.102 244.4 360.802 241.6 363.102 240.2C365.402 238.85 369.552 236.95 372.302 236Z" fill="white"/>
<path d="M532.152 289.6C531.652 289.9 531.552 284.3 531.552 262.45V234.95H551.152C565.952 234.95 571.402 235.15 573.302 235.65C574.652 236 576.702 236.75 577.802 237.3C578.902 237.85 580.552 239.1 581.502 240C582.452 240.95 583.802 242.95 584.452 244.45C585.302 246.25 585.802 248.45 585.952 250.7C586.102 253 585.902 255.3 585.352 257.35C584.902 259.05 583.802 261.65 582.902 263.1C581.952 264.55 580.102 266.7 578.752 267.9C577.402 269.1 573.802 271.25 570.802 272.7C567.752 274.15 561.002 276.85 555.802 278.7C550.552 280.55 544.502 282.9 542.302 283.9C540.102 284.95 537.052 286.55 535.552 287.5C534.052 288.5 532.502 289.4 532.152 289.6Z" fill="white"/>
<path d="M701.752 292.95C709.552 273.55 716.602 256.15 717.352 254.3C718.152 252.4 718.952 251.05 719.102 251.3C719.302 251.5 725.202 266.05 732.252 283.6C739.302 301.1 745.052 315.55 745.052 315.7C745.052 315.85 742.502 315.95 739.402 315.95C736.352 315.95 730.552 316.2 726.552 316.5C722.552 316.8 716.952 317.45 714.052 318.05C711.152 318.6 706.752 319.75 704.302 320.55C701.802 321.4 698.002 323 695.802 324.1C693.602 325.2 690.952 326.7 689.902 327.4C688.902 328.1 687.902 328.6 687.752 328.45C687.652 328.3 693.902 312.35 701.752 292.95Z" fill="white"/>
<path d="M550.552 302.65C552.352 302.2 555.252 301.65 557.052 301.45C558.852 301.25 561.302 301.05 562.552 301.05C563.802 301 566.802 301.2 569.302 301.5C571.752 301.75 575.502 302.6 577.552 303.25C579.602 303.95 582.602 305.35 584.252 306.35C585.852 307.4 588.052 309.2 589.152 310.45C590.252 311.7 591.652 313.85 592.352 315.2C593.002 316.6 593.802 319.15 594.152 320.95C594.602 323.35 594.602 325 594.202 327.2C593.902 328.85 593.152 331.35 592.502 332.7C591.852 334.1 589.902 336.7 588.052 338.5C585.902 340.65 583.702 342.35 581.552 343.35C579.752 344.2 576.502 345.4 574.302 345.95C571.202 346.8 568.752 347.05 563.552 347.05C559.852 347.05 555.452 346.8 553.802 346.5C552.152 346.15 549.352 345.4 547.552 344.85C545.752 344.3 542.802 342.85 540.902 341.65C539.002 340.4 536.802 338.45 535.802 337.1C534.852 335.8 533.552 333.45 532.952 331.95C532.102 329.75 531.852 328.15 531.852 324.2C531.852 320.1 532.102 318.65 533.052 316.2C533.852 314.25 535.252 312.15 537.052 310.2C539.002 308.15 541.102 306.6 543.602 305.35C545.652 304.3 548.752 303.1 550.552 302.65Z" fill="white"/>
</svg>
